<svg xmlns="http://www.w3.org/2000/svg" width="500" height="300" viewBox="0 0 500 300">
  <g id="Grupo_34941" data-name="Grupo 34941" transform="translate(70 -27)">
    <g id="Grupo_34911" data-name="Grupo 34911">
      <path id="Trazado_42645" data-name="Trazado 42645" d="M0,0H500V300H0Z" transform="translate(-70 27)" fill="#fde375"/>
    </g>
    <g id="Grupo_34940" data-name="Grupo 34940" transform="translate(-2296.615 -345.698)">
      <g id="Grupo_34935" data-name="Grupo 34935" transform="translate(2352.243 450.662)">
        <path id="Trazado_42646" data-name="Trazado 42646" d="M2354.253,722.777h119.5s-6.932-12.249-18.964-7.962c0,0-6.111-10.494-15.71-4.536,0,0-13.064-14.866-29.554-4.453,0,0-4.515-12.5-20.134-12.235s-19.784,14.592-19.784,14.592S2354.253,706.148,2354.253,722.777Z" transform="translate(-2345.664 -533.325)" fill="#fccc05"/>
        <path id="Trazado_42647" data-name="Trazado 42647" d="M2480.865,713.842H2599.4c11.038-.34,11.628-5.045,10.414-6.835-1.127-1.66-2.259-1.6-4.079-.641a12.892,12.892,0,0,1-6.334,1.521h-118.53s-4.743-.175-6.942-1.521-4.627,3.051-1.5,5.249S2480.865,713.842,2480.865,713.842Z" transform="translate(-2378.906 -536.773)" fill="#424242"/>
        <path id="Trazado_42648" data-name="Trazado 42648" d="M2501.2,717.073h0a2.408,2.408,0,0,0,2.615,2.224l84.377-.15a2.359,2.359,0,0,0,2.531-2.032l.026-.7a2.413,2.413,0,0,0-2.641-2.223l-84.4.85A2.354,2.354,0,0,0,2501.2,717.073Z" transform="translate(-2387.529 -539.195)" fill="#422c9b"/>
        <path id="Trazado_42649" data-name="Trazado 42649" d="M2504.849,717.073h0a2.408,2.408,0,0,0,2.615,2.224l84.377-.15a2.358,2.358,0,0,0,2.53-2.032l.026-.7a2.413,2.413,0,0,0-2.641-2.223l-84.4.85A2.353,2.353,0,0,0,2504.849,717.073Z" transform="translate(-2388.569 -539.195)" fill="#6d31fd"/>
        <path id="Trazado_42650" data-name="Trazado 42650" d="M2606.526,504.674s-6.941-5.727-1.446-17.76c0,0,13.319.494,17.138,3.676a37.754,37.754,0,0,1-.767,7.605c-1.347,5.055-3.587,6.479-3.587,6.479Z" transform="translate(-2416.522 -474.444)" fill="#e2a388"/>
        <path id="Trazado_42651" data-name="Trazado 42651" d="M2607.439,495.954l9.414-2.386,5.315,2.484s-1.06,8.189-5.054,9.708l-7.9.39S2603.881,501.074,2607.439,495.954Z" transform="translate(-2417.448 -476.34)" fill="#d3927a" opacity="0.33"/>
        <path id="Trazado_42652" data-name="Trazado 42652" d="M2605.924,485.576v-3.63s2.478-11.685,8.506-12.466a1.856,1.856,0,0,1,1.993,2.647c-.825,2.863-3.693,6.006-3.8,10.357A5.506,5.506,0,0,1,2605.924,485.576Z" transform="translate(-2417.365 -469.476)" fill="#e2a388"/>
        <path id="Trazado_42653" data-name="Trazado 42653" d="M2626.1,489.545a2.565,2.565,0,0,1,3.384,0c1.735,1.475-.941,6.248-2.445,6.595s-2.11-1.171-2.067-1.952S2626.1,489.545,2626.1,489.545Z" transform="translate(-2422.792 -475.007)" fill="#e2a388"/>
        <path id="Trazado_42654" data-name="Trazado 42654" d="M2630.075,489.545a2.473,2.473,0,0,0-3.034-.247,2.441,2.441,0,0,1,1.949.636c1.511,1.284-.323,5.067-1.814,6.253a1.81,1.81,0,0,0,.454-.046C2629.134,495.793,2631.81,491.02,2630.075,489.545Z" transform="translate(-2423.381 -475.007)" fill="#d3927a" opacity="0.33"/>
        <path id="Trazado_42655" data-name="Trazado 42655" d="M2620.54,487.244a2.928,2.928,0,0,1,3.451-1.389c2.256.781,1.6,3.645,1.084,5.38s-1.388,3.6-3.3,3.558S2619.216,491.713,2620.54,487.244Z" transform="translate(-2421.332 -474.094)" fill="#e2a388"/>
        <path id="Trazado_42656" data-name="Trazado 42656" d="M2624.648,485.855a2.613,2.613,0,0,0-2.5.346,2.651,2.651,0,0,1,1.735.044c2.255.781,1.6,3.645,1.084,5.38a5.961,5.961,0,0,1-1.735,3.056c1.361-.418,2.054-1.976,2.5-3.447C2626.253,489.5,2626.9,486.636,2624.648,485.855Z" transform="translate(-2421.988 -474.094)" fill="#d3927a" opacity="0.33"/>
        <path id="Trazado_42657" data-name="Trazado 42657" d="M2613.37,486.338s2.137-3.378,4.74-2.641,2.17,6.378,1.432,8.026a3.121,3.121,0,0,1-3.492,2.054c-1.453-.232-2.24-3.857-1.3-7.273Z" transform="translate(-2419.487 -473.497)" fill="#e2a388"/>
        <path id="Trazado_42658" data-name="Trazado 42658" d="M2618.874,483.7a3.3,3.3,0,0,0-2.822.631,2.942,2.942,0,0,1,1.775-.064c2.678.759,2.232,6.561,1.473,8.257a4.441,4.441,0,0,1-.613,1.006,3.505,3.505,0,0,0,1.619-1.8C2621.043,490.075,2621.478,484.434,2618.874,483.7Z" transform="translate(-2420.25 -473.497)" fill="#d3927a" opacity="0.33"/>
        <path id="Trazado_42659" data-name="Trazado 42659" d="M2606.316,506.212s-4.136-3.2-4.093-8.229,3.948-4.3,6.161-4.73,2.95-1.432,4.078-.651a2.835,2.835,0,0,1-.258,4.382,9.55,9.55,0,0,1-4.405,1.519l2.146,7.708Z" transform="translate(-2416.311 -475.982)" fill="#e2a388"/>
        <path id="Trazado_42660" data-name="Trazado 42660" d="M2607.8,501.23l1.585-.26a6.93,6.93,0,0,1,5.577,6.638l-5.3.651Z" transform="translate(-2417.901 -478.448)" fill="#e2a388"/>
        <path id="Trazado_42661" data-name="Trazado 42661" d="M2603.22,499.047c.044-5.033,3.948-4.3,6.161-4.729,2.007-.394,2.8-1.247,3.773-.819a2.048,2.048,0,0,0-.693-.9c-1.128-.781-1.866.217-4.078.651s-6.118-.3-6.161,4.73a10.984,10.984,0,0,0,3.586,7.783A10.459,10.459,0,0,1,2603.22,499.047Z" transform="translate(-2416.311 -475.982)" fill="#d3927a" opacity="0.33"/>
        <path id="Trazado_42662" data-name="Trazado 42662" d="M2483.38,679.84a1.836,1.836,0,0,0-1.908-.542c-1.157.369-2.488,2.669-2.719,3.977s3.5,8.916,12.859,14.628a28.109,28.109,0,0,0,5.479,4.092c4.376,2.14,20.71.868,22.04-.058a2.683,2.683,0,0,0,.81-2.779Z" transform="translate(-2381.131 -529.229)" fill="#e8edef"/>
        <path id="Trazado_42663" data-name="Trazado 42663" d="M2558.567,519.188s10.266,20.087-1.577,37l-24.9-5.365,15.3-31.133Z" transform="translate(-2396.33 -483.639)" fill="#fccc05"/>
        <path id="Trazado_42664" data-name="Trazado 42664" d="M2558.567,519.188s10.266,20.087-1.577,37l-24.9-5.365,15.3-31.133Z" transform="translate(-2396.33 -483.639)" fill="#dbb100" opacity="0.5"/>
        <g id="Grupo_34912" data-name="Grupo 34912" transform="translate(110.224 40.752)">
          <path id="Trazado_42665" data-name="Trazado 42665" d="M2510.349,526.463s-12.967,4.095-13.886,8.149,6,5.16,14.179,2.246C2510.642,536.858,2514.686,531.667,2510.349,526.463Z" transform="translate(-2496.381 -526.463)" fill="#0e7992"/>
          <path id="Trazado_42666" data-name="Trazado 42666" d="M2510.361,526.463a50.062,50.062,0,0,0-5.077,1.821c-.171,4.524-4.429,6.63-4.429,6.63a10.7,10.7,0,0,1-4.433.781c.472,3.146,6.836,3.8,14.232,1.163C2510.654,536.858,2514.7,531.667,2510.361,526.463Z" transform="translate(-2496.393 -526.463)" fill="#006070" opacity="0.7"/>
        </g>
        <path id="Trazado_42667" data-name="Trazado 42667" d="M2528.48,515.7s-1.966-9.046-16.081-8.745-19.371,7.525-20.621,15.68c-1.219,7.949-8.939,9.321-13.336,8.627s-8.156-1.676-15.214-8.965-12.611-1.38-11.8,4.169c.706,4.833,4.05,6.906,8.793,9.352s-.463,4.69-5.09,3.568-7.15-2.119-13.421-11.4c-5.553-8.216-17.247-2.648-14.925,7.556,3.066,13.467,16.313,14.61,15.908,17.528-.289,2.083-3.515,2.243-7.462,1.013-4.917-1.533-7.173,1.648-5.728,6.739,2.261,7.956,16.748,16.516,29.1,11.685l54.965-29.364Z" transform="translate(-2366.243 -480.152)" fill="#fccc05"/>
        <path id="Trazado_42668" data-name="Trazado 42668" d="M2517.514,540.185l-54.965,29.364c-12.35,4.83-26.837-3.73-29.1-11.686q-.122-.431-.208-.842c-2.756.408-3.817,3.18-2.711,7.072,2.26,7.956,16.747,16.516,29.1,11.685l54.966-29.364,14.915-27.445a4.97,4.97,0,0,0-.167-.55Z" transform="translate(-2367.274 -483.42)" fill="#dbb100" opacity="0.5"/>
        <path id="Trazado_42669" data-name="Trazado 42669" d="M2494.1,555.855c-.174.266,13.63-7.713,18.35-18.637l24.171-2.34-30.47,30.016Z" transform="translate(-2385.506 -488.109)" fill="#dbb100" opacity="0.5"/>
        <path id="Trazado_42670" data-name="Trazado 42670" d="M2619.182,512.836s2.156-2.28-1.055-3.315-9.6-.343-11.5.687-.765,3.733-.765,3.733a21.687,21.687,0,0,1,7.423-2S2617.492,511.745,2619.182,512.836Z" transform="translate(-2417.251 -480.739)" fill="#422c9b"/>
        <path id="Trazado_42671" data-name="Trazado 42671" d="M2509.146,549.372s40.638-2.238,51.513-8.451,11.8-15.469,11.338-21.948c0,0-.983-4.743,3.138-5.828a19.971,19.971,0,0,1,9.892-.348c2,.608,3.124,2.256,3.948,4.773s5.553,20.3-5.727,34.991-24.295,17.983-24.295,17.983a27.775,27.775,0,0,1-1.783,8.59l-67.689,1.851Z" transform="translate(-2384.191 -481.686)" fill="#6d31fd"/>
        <path id="Trazado_42672" data-name="Trazado 42672" d="M2509.146,549.372s40.638-2.238,51.513-8.451,11.8-15.469,11.338-21.948c0,0-.983-4.743,3.138-5.828a19.971,19.971,0,0,1,9.892-.348c2,.608,3.124,2.256,3.948,4.773s5.553,20.3-5.727,34.991-24.295,17.983-24.295,17.983a27.775,27.775,0,0,1-1.783,8.59l-67.689,1.851Z" transform="translate(-2384.191 -481.686)" fill="#422c9b" opacity="0.35"/>
        <path id="Trazado_42673" data-name="Trazado 42673" d="M2573.616,571.232s13.014-3.3,24.295-17.983,6.551-32.475,5.728-34.991a9.016,9.016,0,0,0-1.9-3.511c-2.217,1.715-1.525,5.058-1.525,5.058.463,6.479-.87,17.209-11.592,23.683-12.927,7.808-33.251,12.5-33.251,12.5l-14.43,24.683,30.888-.844A27.771,27.771,0,0,0,2573.616,571.232Z" transform="translate(-2398.853 -482.373)" fill="#422c9b" opacity="0.35"/>
        <path id="Trazado_42674" data-name="Trazado 42674" d="M2466.648,608.337a54.919,54.919,0,0,0-5.408,15.271c-1.318,7.4.549,12.86,5.061,12.91,0,0-.231,3.26,3.355,2.117l6.334-21.042Z" transform="translate(-2376.027 -509.037)" fill="#422c9b"/>
        <path id="Trazado_42675" data-name="Trazado 42675" d="M2484.122,639.741s16.682,20.782,33.582,12.452c0,0,6.834,10.155,23.321,2.388l5.744-38.485-16.893-3.877Z" transform="translate(-2382.664 -510.143)" fill="#0e7992"/>
        <path id="Trazado_42676" data-name="Trazado 42676" d="M2473.528,618.872s-13.8,30.075,20.218,30.978l15.89.729,18.681-42.842-19.289-4.657S2476.031,610.032,2473.528,618.872Z" transform="translate(-2378.857 -507.539)" fill="#2bbee0"/>
        <path id="Trazado_42677" data-name="Trazado 42677" d="M2521.8,622.249l-4.044-13.1-20.821,30.321,1.988,1.525-4.006,5.793s-5.821-.694-7.305,3.106a38.308,38.308,0,0,0,10.933,1.688l8.644-17.34Z" transform="translate(-2383.659 -509.268)" fill="#4295a8" opacity="0.29" style="mix-blend-mode: multiply;isolation: isolate"/>
        <path id="Trazado_42678" data-name="Trazado 42678" d="M2496.152,666.967s-5.412-2.392-8.938,2.084c-3.7,4.691-3.105,8.276-3.105,8.276s.56,2.024,6.865,9.487,6.305,8.227,13.016,8.365,17.47.309,17.47.309l-1.678-2.022s-7.289-7.694-7.347-9.95-2.385-7.155-2.385-7.155l-.753.358S2498.648,672.191,2496.152,666.967Z" transform="translate(-2382.651 -525.559)" fill="#f2f4f4"/>
        <path id="Trazado_42679" data-name="Trazado 42679" d="M2493.985,667.06l2.561,7.391,10.222,4.067,1.234-3.849s-5.987-2.71-9.025-7.709C2498.976,666.961,2495.817,665.426,2493.985,667.06Z" transform="translate(-2385.474 -525.553)" fill="#dbdbdb"/>
        <path id="Trazado_42680" data-name="Trazado 42680" d="M2492.687,669.5a8.059,8.059,0,0,0-3.547,2.4s-.346.759-1.317.209-2.352-1.956-1.39-3.355,2.927-3.558,5.827-3.676c0,0,1.29-.132,1.322.775.016.463.072,1.307.123,2.021A1.61,1.61,0,0,1,2492.687,669.5Z" transform="translate(-2383.229 -525.202)" fill="#6d31fd"/>
        <path id="Trazado_42681" data-name="Trazado 42681" d="M2492.26,665.081s1.219-.122,1.313.708a8.232,8.232,0,0,0-4.91,3.563,1.992,1.992,0,0,0,.441,2.612c-.109.168-.484.6-1.282.148-.971-.551-2.352-1.956-1.39-3.355S2489.359,665.2,2492.26,665.081Z" transform="translate(-2383.229 -525.202)" fill="#422c9b" opacity="0.4"/>
        <path id="Trazado_42682" data-name="Trazado 42682" d="M2500.123,698.62s.348-7.988,7.74-9.261l-.612-2.631s-8.016,1.379-9.421,9.395Z" transform="translate(-2386.57 -531.371)" fill="#dbdbdb"/>
        <path id="Trazado_42683" data-name="Trazado 42683" d="M2506.638,650.706l-7.071,13.754s3.3,8.807,14.144,7.81l8.07-13.884Z" transform="translate(-2387.064 -521.108)" fill="#e2a388"/>
        <path id="Trazado_42684" data-name="Trazado 42684" d="M2511.373,647.745l-4.72,3.6-4.361,8.483s8.366,6.149,17.722,2.09l3.588-5.562Z" transform="translate(-2387.84 -520.264)" fill="#d3927a"/>
        <path id="Trazado_42685" data-name="Trazado 42685" d="M2510.26,677.411s.5-1.6-.107-1.645-1.5.1-1.63,1.884-.789,8.264,2.705,11.176l1.394-1S2508.808,685.914,2510.26,677.411Z" transform="translate(-2389.578 -528.245)" fill="#6d31fd"/>
        <path id="Trazado_42686" data-name="Trazado 42686" d="M2513.669,689.319s-3.935-3.255-3.563-12.452c0,0,.2-4.773,4.6-3.8,4.126.912,3.906,3,3.861,4.648-.035,1.25.377,5.867,3.037,8.921Z" transform="translate(-2390.06 -527.441)" fill="#e8edef"/>
        <path id="Trazado_42687" data-name="Trazado 42687" d="M2509.239,608.138s11.9-11.1,21.5-11.449,15.151,4.969,13.416,11.449-17.3,36.213-17.3,36.213-16.485.925-19.378-9.256c0,0,15.751-26.159,15.943-29.5S2509.239,608.138,2509.239,608.138Z" transform="translate(-2389.317 -505.714)" fill="#2bbee0"/>
        <path id="Trazado_42688" data-name="Trazado 42688" d="M2502.795,595.992l-3.983,5.293c-11.879,14.925-26.561,11.28-31.94,6.855s-6.756-20.218,5.64-35.145,27.646-12.275,27.646-12.275c-1.509,11.5,3.525,16.9,3.525,16.9l-13.036,6.616-.651.564s5.248.842,8.591,3.083c3.427,2.3,5.092,4.1,5.1,5.71A5.423,5.423,0,0,1,2502.795,595.992Z" transform="translate(-2376.626 -495.419)" fill="#6d31fd"/>
        <path id="Trazado_42689" data-name="Trazado 42689" d="M2516.312,556.666s12.417.758,19.246,7.06l-3.975,6.085L2529,574.15S2516.616,561.785,2516.312,556.666Z" transform="translate(-2391.835 -494.316)" fill="#acaebc"/>
        <path id="Trazado_42690" data-name="Trazado 42690" d="M2516.918,560.792a14.514,14.514,0,0,0-1.2,11.974c2.126,6.9,5.423,5.6,5.423,5.6l10.065.608,3.309-10.847Z" transform="translate(-2391.459 -495.492)" fill="#e4e5ef"/>
        <path id="Trazado_42691" data-name="Trazado 42691" d="M2515.877,568s-1,7.541,3.6,10.26c4.71,2.785,9.7,2.009,11.866.636l-.628,3.239s-7.159,2.486-13.363-1.722-3.774-13.879-3.774-13.879Z" transform="translate(-2390.922 -497.129)" fill="#422c9b"/>
        <path id="Trazado_42692" data-name="Trazado 42692" d="M2524.789,545.741a48.836,48.836,0,0,1-7.809,13.148s3.471,7.9,7.809,10.5l3.223,1.648,3.125-4.144s5.542-8.348,6.015-11.523Z" transform="translate(-2392.025 -491.204)" fill="#e2a388"/>
        <path id="Trazado_42693" data-name="Trazado 42693" d="M2531.4,572.319l-3.846,2.126-.867,1.388,2.356,3.167-.153,2.913,2.51.151V579l2.1-2.242Z" transform="translate(-2394.791 -498.776)" fill="#dcdee5"/>
        <path id="Trazado_42694" data-name="Trazado 42694" d="M2536.574,561.788c1.09-2,2.693-5.185,2.877-6.417l-12.363-9.63s-.3.759-1.984,4.353C2524.5,554.405,2529.277,561.533,2536.574,561.788Z" transform="translate(-2394.325 -491.204)" fill="#d3927a"/>
        <circle id="Elipse_507" data-name="Elipse 507" cx="17.948" cy="17.948" r="17.948" transform="translate(129.374 30.83)" fill="#e2a388"/>
        <circle id="Elipse_508" data-name="Elipse 508" cx="3.249" cy="3.249" r="3.249" transform="translate(126.923 46.225)" fill="#e2a388"/>
        <path id="Trazado_42695" data-name="Trazado 42695" d="M2527.251,516.644a49.7,49.7,0,0,1,28.292-4.267s2.183,1.552,4.941-1.6,5.238-1.807,6.682-.38c2,1.974.834,6.4-1.388,8.656-2.97,3.016-10.234,6.074-17.325.26,0,0-4.594,4.627-10.18-.463,0,0-3.531,5.322-9.372,4.918,0,0-.573,3.877-5.551,3.153C2523.349,526.918,2521.958,522.365,2527.251,516.644Z" transform="translate(-2393.792 -480.693)" fill="#fccc05"/>
        <g id="Grupo_34913" data-name="Grupo 34913" transform="translate(149.806 40.569)">
          <circle id="Elipse_509" data-name="Elipse 509" cx="7.071" cy="7.071" r="7.071" transform="translate(3.118 0.198)" fill="#bbe2ef"/>
          <rect id="Rect치ngulo_1528" data-name="Rect치ngulo 1528" width="4.311" height="0.994" transform="translate(0 7.386) rotate(-1.922)" fill="#4d4d4d"/>
          <circle id="Elipse_510" data-name="Elipse 510" cx="7.071" cy="7.071" r="7.071" transform="translate(4.293)" fill="#d0ecf4"/>
          <path id="Trazado_42696" data-name="Trazado 42696" d="M2566.135,526.23c-.114-.009-.227-.014-.339-.018l-5.335,11.941a7.053,7.053,0,0,0,3.57,2.024l5.655-12.657A7.037,7.037,0,0,0,2566.135,526.23Z" transform="translate(-2554.219 -526.208)" fill="#fafeff" opacity="0.69"/>
        </g>
        <g id="Grupo_34914" data-name="Grupo 34914" transform="translate(131.314 41.327)">
          <circle id="Elipse_511" data-name="Elipse 511" cx="7.071" cy="7.071" r="7.071" transform="translate(4.673 0.198)" fill="#bbe2ef"/>
          <rect id="Rect치ngulo_1529" data-name="Rect치ngulo 1529" width="0.994" height="5.853" transform="translate(0 6.287) rotate(-82.888)" fill="#4d4d4d"/>
          <circle id="Elipse_512" data-name="Elipse 512" cx="7.071" cy="7.071" r="7.071" transform="translate(5.848)" fill="#d0ecf4"/>
          <path id="Trazado_42697" data-name="Trazado 42697" d="M2542.45,527.291c-.114-.009-.227-.014-.339-.018l-5.335,11.942a7.053,7.053,0,0,0,3.57,2.024L2546,528.58A7.041,7.041,0,0,0,2542.45,527.291Z" transform="translate(-2528.979 -527.269)" fill="#fafeff" opacity="0.69"/>
        </g>
        <path id="Trazado_42698" data-name="Trazado 42698" d="M2522.42,537.548a1.237,1.237,0,0,1,1.758.6c.556,1.237-.34,1.731-.8,1.781a.559.559,0,0,1-.4-.93c.338-.294.748.056.748.056S2523.808,537.574,2522.42,537.548Z" transform="translate(-2393.575 -488.823)" fill="#d3927a"/>
        <g id="Grupo_34915" data-name="Grupo 34915" transform="translate(145.126 57.071)">
          <path id="Trazado_42699" data-name="Trazado 42699" d="M2545.35,549.284a18.673,18.673,0,0,0,8.5,0s.309,6.35-5.014,5.9C2544.048,554.78,2545.35,549.284,2545.35,549.284Z" transform="translate(-2545.188 -549.284)" fill="#062625"/>
          <path id="Trazado_42700" data-name="Trazado 42700" d="M2550.239,552.336a4.64,4.64,0,0,0-4.387,1.732,3.563,3.563,0,0,0,3.176,1.979,4,4,0,0,0,4.3-2.31A4.376,4.376,0,0,0,2550.239,552.336Z" transform="translate(-2545.377 -550.146)" fill="#ed1c24"/>
          <path id="Trazado_42701" data-name="Trazado 42701" d="M2550.581,553.38a4.665,4.665,0,0,1,2.212,1.706,1.766,1.766,0,1,0-2.094-2.75,5.1,5.1,0,0,0-3.233.668A5.185,5.185,0,0,1,2550.581,553.38Z" transform="translate(-2545.837 -550.146)" fill="#fc3a49"/>
        </g>
        <path id="Trazado_42702" data-name="Trazado 42702" d="M2528.819,519.8l1.975-7.036s12.262-5.62,15.907-3.573a50.338,50.338,0,0,1,7.926,6.1Z" transform="translate(-2395.398 -480.663)" fill="#fccc05"/>
        <path id="Trazado_42703" data-name="Trazado 42703" d="M2514.5,556.666s4.686,7.419,12.133,11.194l-3.889,5.857s-9.762-4.946-12.8-11.628C2509.942,562.089,2512.5,558.1,2514.5,556.666Z" transform="translate(-2390.02 -494.316)" fill="#cacbd8"/>
        <path id="Trazado_42704" data-name="Trazado 42704" d="M2533.83,576.963l-.552-6.291s4.672-.847,7.114-4.133l.509,4.784S2538.6,576.226,2533.83,576.963Z" transform="translate(-2396.668 -497.129)" fill="#cacbd8"/>
        <path id="Trazado_42705" data-name="Trazado 42705" d="M2506.6,586.18s-10.209-1.215-18.106,5.64-6.855,9.718-5.6,9.415,10.673-8.374,18.18-8.2,6.811-5.12,6.811-5.12Z" transform="translate(-2382.069 -502.701)" fill="#422c9b" opacity="0.35"/>
        <path id="Trazado_42706" data-name="Trazado 42706" d="M2533.078,586.968a11.528,11.528,0,0,1-9.763,2.169c-1.117,3.269-5.2,5.568-5.2,5.568l-8.171-4.671a27.031,27.031,0,0,1,11.382-11.628s6.449.752,9.118,2.546S2533.078,586.968,2533.078,586.968Z" transform="translate(-2390.02 -500.51)" fill="#e2a388"/>
        <path id="Trazado_42707" data-name="Trazado 42707" d="M2526.228,584a6.2,6.2,0,0,0,.519,7.78,7.046,7.046,0,0,0,.879-1.7,11.534,11.534,0,0,0,9.6-2.047C2535.884,582.133,2529.322,579.411,2526.228,584Z" transform="translate(-2394.331 -501.445)" fill="#d3927a"/>
        <path id="Trazado_42708" data-name="Trazado 42708" d="M2538.608,576.236a13.446,13.446,0,0,0,4.318-3.3,1.592,1.592,0,0,1,2.082-.26c1.3.723.636,3.788,0,4.54S2540.208,577.594,2538.608,576.236Z" transform="translate(-2398.187 -498.802)" fill="#d3927a"/>
        <path id="Trazado_42709" data-name="Trazado 42709" d="M2540.318,578.844s.781-1.417,1.736-1.62,3.586-.405,4.859,1.5,3.933,5.93,4.569,6.942-.009,2.871-2.227,2.488c-2.921-.5-3.731-2.14-3.731-2.14Z" transform="translate(-2398.674 -500.137)" fill="#e2a388"/>
        <path id="Trazado_42710" data-name="Trazado 42710" d="M2551.452,587.486a1.9,1.9,0,0,0-.466-.061c-1.947-.044-4.128-1.175-5.661-5.97a8.713,8.713,0,0,0-3.414-4.123,3.774,3.774,0,0,0-1.582,1.563l.06.107,5.138,7.081s.81,1.635,3.731,2.14A2.017,2.017,0,0,0,2551.452,587.486Z" transform="translate(-2398.678 -500.204)" fill="#d69680" opacity="0.62"/>
        <path id="Trazado_42711" data-name="Trazado 42711" d="M2515.2,601.764s3.109-.422,1.258-3.243-7.26-6.291-9.386-6.681-2.938,2.427-2.938,2.427a21.687,21.687,0,0,1,7.033,3.1S2514.569,599.855,2515.2,601.764Z" transform="translate(-2388.365 -504.327)" fill="#422c9b"/>
        <path id="Trazado_42712" data-name="Trazado 42712" d="M2532.09,578.833s1.892-1.789,3.28-1.744,3.291.333,4.018,1.462,4.545,6.552,4.747,7.629-2.373,2.639-4.338,1.136a28.713,28.713,0,0,1-4.4-4.946Z" transform="translate(-2396.33 -500.134)" fill="#e2a388"/>
        <path id="Trazado_42713" data-name="Trazado 42713" d="M2538.143,582.682a10.912,10.912,0,0,0-4.2-5,8.916,8.916,0,0,0-1.708,1.211c-.021.058-.039.117-.055.177l3.245,3.467a28.781,28.781,0,0,0,4.4,4.946,3.072,3.072,0,0,0,3.545.112h0C2540.114,588,2538.843,584.467,2538.143,582.682Z" transform="translate(-2396.356 -500.304)" fill="#d69680" opacity="0.62"/>
        <path id="Trazado_42714" data-name="Trazado 42714" d="M2522.925,580.866l.792-2.065s2.2-1.606,3.6-1.68c.612-.033,2.637-.217,3.562.91s2.784,2.987,2.9,4.574-.872,1.963-2.05,4.38c-.929,1.9-4.71-.525-2.177-4.181l-.955-.955a7.737,7.737,0,0,1-3.572,1.255C2522.838,583.324,2522.925,580.866,2522.925,580.866Z" transform="translate(-2393.719 -500.135)" fill="#e2a388"/>
        <path id="Trazado_42715" data-name="Trazado 42715" d="M2559.672,579.109l12.957-24.174h37.717s5.033-.341,3.471,3.362-13.826,26.495-13.826,26.495a4.454,4.454,0,0,1-3.355,2.047c-2.083,0-38.946-.561-38.946-.561Z" transform="translate(-2403.624 -493.82)" fill="#b2aaaf"/>
        <path id="Trazado_42716" data-name="Trazado 42716" d="M2520.781,581.9H2544.8l13.8-25.548s.607-1.409,1.562-1.409h2.647l-16.053,31.343-27.01-.692s-.758-.26-.28-1.215S2520.781,581.9,2520.781,581.9Z" transform="translate(-2392.688 -493.824)" fill="#ccc2c8"/>
        <path id="Trazado_42717" data-name="Trazado 42717" d="M2551.716,658.624l-1.462,1.483a89.061,89.061,0,0,0-4.274,17.545s7.873,3.086,15.521.95a149.628,149.628,0,0,1,4.724-16.674Z" transform="translate(-2400.287 -523.364)" fill="#e2a388"/>
        <path id="Trazado_42718" data-name="Trazado 42718" d="M2564.636,668.3c.609-2.069,1.3-4.256,2.064-6.361l-14.35-3.267-1.621,1.447a95.19,95.19,0,0,0-3.079,10.7C2550.741,670.989,2559.141,671.13,2564.636,668.3Z" transform="translate(-2400.763 -523.379)" fill="#d3927a"/>
        <path id="Trazado_42719" data-name="Trazado 42719" d="M2551.268,603.849s10.24-8.348,16.835-7.2,10.875,3.813,10.3,13.878-9.023,35.565-9.023,35.565-11.917,2.621-19.654-3.633c0,0,10.166-22.755,7.968-27.536s-7.968,1.041-7.968,1.041Z" transform="translate(-2401.354 -505.677)" fill="#2bbee0"/>
        <g id="Grupo_34917" data-name="Grupo 34917" transform="translate(140.842 148.54)">
          <path id="Trazado_42720" data-name="Trazado 42720" d="M2581.217,696.345l-8.182,1.578s-23.952-1.181-32.3-3.711c0,0-.93-9.348,4.7-15.666,0,0,2.609,3.939,8.666,3.771,4.277-.117,5.268-1.281,5.268-1.281l16.471,5.312Z" transform="translate(-2539.618 -677.58)" fill="#f2f4f4"/>
          <path id="Trazado_42721" data-name="Trazado 42721" d="M2552.8,686.217l-9.26-3.6a16.873,16.873,0,0,1,2.7-4.176s2.609,3.939,8.665,3.772c4.278-.118,5.268-1.282,5.268-1.282l1.687.544-.039.926Z" transform="translate(-2540.436 -677.549)" fill="#dbdbdb"/>
          <path id="Trazado_42722" data-name="Trazado 42722" d="M2580.281,693.253a12.813,12.813,0,0,0-.957,8.43l-3.661-.248s-.875-5.867,1.35-8.958Z" transform="translate(-2549.538 -681.549)" fill="#dbdbdb"/>
          <path id="Trazado_42723" data-name="Trazado 42723" d="M2547.157,681.395a9.021,9.021,0,0,0-1.624,4.51s.188.915-1.053,1.058-3.416-.219-3.469-2.118.3-5.146,2.846-7.164c0,0,1.08-.97,1.706-.17.32.408.927,1.133,1.444,1.746A1.8,1.8,0,0,1,2547.157,681.395Z" transform="translate(-2539.712 -677.195)" fill="#6d31fd"/>
          <path id="Trazado_42724" data-name="Trazado 42724" d="M2543.859,677.683s1.022-.915,1.655-.226a9.2,9.2,0,0,0-2.091,6.457c.036,1.3,1.072,1.882,2.12,2.071.013.224-.042.862-1.062.979-1.241.142-3.416-.219-3.469-2.117S2541.314,679.7,2543.859,677.683Z" transform="translate(-2539.712 -677.196)" fill="#422c9b" opacity="0.4"/>
          <path id="Trazado_42725" data-name="Trazado 42725" d="M2581.549,691.206s-7.76-.76-12.05-3.239-4.515-4.8-4.478-5.4.76-1.861,1.87-.863,9.552,6.88,14.6,7.5l.814.086Z" transform="translate(-2546.554 -678.374)" fill="#6d31fd"/>
          <path id="Trazado_42726" data-name="Trazado 42726" d="M2584.459,685.562a56.863,56.863,0,0,1-11.54-4.39c-4.508-2.581-5.292-1.532-6.164.17s2.076,6.6,14.886,8.032l4.667.467Z" transform="translate(-2547.008 -677.886)" fill="#e8edef"/>
          <path id="Trazado_42727" data-name="Trazado 42727" d="M2598.413,700.168s4.558-5.429.657-9.542a9.979,9.979,0,0,0-9.168-2.778s-5.111,3.063-4.034,12.667A123.859,123.859,0,0,0,2598.413,700.168Z" transform="translate(-2552.451 -680.171)" fill="#dbdbdb"/>
          <path id="Trazado_42728" data-name="Trazado 42728" d="M2588.2,687.287s-2.647.2-3.388,4.56a.994.994,0,0,1-1.248-.31s.788-3.957,3.142-4.78C2586.7,686.756,2587.8,686.54,2588.2,687.287Z" transform="translate(-2551.836 -679.911)" fill="#dbdbdb"/>
          <path id="Trazado_42729" data-name="Trazado 42729" d="M2583.681,685.813s-2.223.689-2.964,5.049a.951.951,0,0,1-1.19-.347s.742-4.143,2.778-5.191C2582.306,685.325,2583.281,685.067,2583.681,685.813Z" transform="translate(-2550.687 -679.499)" fill="#dbdbdb"/>
          <path id="Trazado_42730" data-name="Trazado 42730" d="M2579.584,684.324s-2.238.77-2.979,5.13a1.033,1.033,0,0,1-1.254-.345s.93-4.262,2.966-5.31A1.411,1.411,0,0,1,2579.584,684.324Z" transform="translate(-2549.497 -679.075)" fill="#dbdbdb"/>
          <path id="Trazado_42731" data-name="Trazado 42731" d="M2576.108,682.852s-2.454.9-3.447,5.205a1.038,1.038,0,0,1-1.168-.493s1.382-4.361,3.476-5.289A1.165,1.165,0,0,1,2576.108,682.852Z" transform="translate(-2548.398 -678.641)" fill="#dbdbdb"/>
          <path id="Trazado_42732" data-name="Trazado 42732" d="M2572.93,681.143s-2.455.947-3.41,5.053a1.207,1.207,0,0,1-1.1-.647s1.277-4.054,3.371-4.983A1.166,1.166,0,0,1,2572.93,681.143Z" transform="translate(-2547.523 -678.154)" fill="#dbdbdb"/>
          <path id="Trazado_42733" data-name="Trazado 42733" d="M2585.159,703.818a164.655,164.655,0,0,1-22.411-.3c-10.8-1.03-20.355-2.147-22.437-3.064,0,0-.992.19-.968,1.109s-1.368,4.637,3.93,5.358,13.3.391,19,.234,10.359.959,22.752-.194C2585.029,706.961,2586.3,705.844,2585.159,703.818Z" transform="translate(-2539.197 -683.821)" fill="#e8edef"/>
          <path id="Trazado_42734" data-name="Trazado 42734" d="M2585.479,706.815s-16.93.8-23.188-.432-20.815-1.711-20.815-1.711,14.937,1.329,18.535,1.891C2562.994,707.03,2577.079,708.345,2585.479,706.815Z" transform="translate(-2539.846 -685.023)" fill="#dbdbdb"/>
          <path id="Trazado_42735" data-name="Trazado 42735" d="M2557.461,707.332l-15.936-.9S2546.485,707.688,2557.461,707.332Z" transform="translate(-2539.86 -685.525)" fill="#dbdbdb"/>
          <g id="Grupo_34916" data-name="Grupo 34916" transform="translate(8.427 13.153)">
            <path id="Trazado_42736" data-name="Trazado 42736" d="M2556.706,696.1l-5.412-.517-.313,2.741,5.736.318Z" transform="translate(-2550.981 -695.588)" fill="#6d31fd"/>
            <path id="Trazado_42737" data-name="Trazado 42737" d="M2551.294,695.588l1.492.143-.144,1.266,4.069.226.007,1.425-5.736-.318Z" transform="translate(-2550.981 -695.588)" fill="#422c9b" opacity="0.4"/>
          </g>
        </g>
        <g id="Grupo_34923" data-name="Grupo 34923" transform="translate(123.703 18.677)">
          <path id="Trazado_42738" data-name="Trazado 42738" d="M2516.469,521.7s-7.262-21.642,13.374-25.257c16.1-2.82,20.912,1.389,23.8,12.365a71.819,71.819,0,0,0-20.073,2.262C2521.8,513.932,2516.469,521.7,2516.469,521.7Z" transform="translate(-2515.23 -495.594)" fill="#2bbee0"/>
          <path id="Trazado_42739" data-name="Trazado 42739" d="M2532.5,510.384l14.573-3.265.034,3.8-13.342,2.753Z" transform="translate(-2520.151 -498.877)" fill="#4295a8"/>
          <path id="Trazado_42740" data-name="Trazado 42740" d="M2533.554,511.327l.656,1.944,12.549-2.378-.087-2.642Z" transform="translate(-2520.45 -499.199)" fill="#f8cf48"/>
          <g id="Grupo_34922" data-name="Grupo 34922" transform="translate(17.231 4.868)">
            <g id="Grupo_34921" data-name="Grupo 34921">
              <g id="Grupo_34920" data-name="Grupo 34920">
                <g id="Grupo_34918" data-name="Grupo 34918" transform="translate(1.091)">
                  <path id="Trazado_42741" data-name="Trazado 42741" d="M2542.664,503.394a.685.685,0,0,1,0,.968l-.05.05s.549.429.274.84l.332-.33a1.475,1.475,0,1,0-2.078-2.094l-.05.05a.673.673,0,0,0-.042.978l.088.089.532-.528.029-.029a.686.686,0,0,1,.968,0" transform="translate(-2540.851 -502.401)" fill="#4295a8"/>
                </g>
                <g id="Grupo_34919" data-name="Grupo 34919" transform="translate(0 1.034)">
                  <path id="Trazado_42742" data-name="Trazado 42742" d="M2540.313,505.707a.686.686,0,0,1,0-.969l.051-.05s-.55-.428-.275-.84l-.333.33a1.475,1.475,0,0,0,2.078,2.094l.05-.05a.672.672,0,0,0,.042-.978l-.088-.089-.532.528-.029.029a.686.686,0,0,1-.969,0" transform="translate(-2539.325 -503.848)" fill="#4295a8"/>
                </g>
              </g>
              <path id="Trazado_42743" data-name="Trazado 42743" d="M2542.046,504.3l-.822.816a.225.225,0,1,0,.317.32l.823-.816a.225.225,0,1,0-.318-.32Z" transform="translate(-2539.848 -502.923)" fill="#4295a8"/>
            </g>
          </g>
        </g>
        <g id="Grupo_34929" data-name="Grupo 34929" transform="translate(176.314 70.89)">
          <circle id="Elipse_513" data-name="Elipse 513" cx="7.012" cy="7.012" r="7.012" fill="#ccc2c8"/>
          <g id="Grupo_34928" data-name="Grupo 34928" transform="translate(2.691 2.798)">
            <g id="Grupo_34927" data-name="Grupo 34927">
              <g id="Grupo_34926" data-name="Grupo 34926">
                <g id="Grupo_34924" data-name="Grupo 34924" transform="translate(2.376)">
                  <path id="Trazado_42744" data-name="Trazado 42744" d="M2599.858,574.689a1.5,1.5,0,0,1,0,2.121l-.109.109s1.206.935.608,1.839l.724-.724a3.23,3.23,0,1,0-4.568-4.567l-.109.109a1.473,1.473,0,0,0-.084,2.143l.194.193,1.16-1.16.063-.063a1.5,1.5,0,0,1,2.121,0" transform="translate(-2595.887 -572.521)" fill="#8c8589"/>
                </g>
                <g id="Grupo_34925" data-name="Grupo 34925" transform="translate(0 2.279)">
                  <path id="Trazado_42745" data-name="Trazado 42745" d="M2594.732,579.776a1.5,1.5,0,0,1,0-2.121l.109-.109s-1.207-.935-.608-1.838l-.724.724a3.23,3.23,0,0,0,4.567,4.567l.11-.109a1.475,1.475,0,0,0,.084-2.143l-.194-.194-1.16,1.161-.062.062a1.5,1.5,0,0,1-2.121,0" transform="translate(-2592.564 -575.708)" fill="#8c8589"/>
                </g>
              </g>
              <path id="Trazado_42746" data-name="Trazado 42746" d="M2598.512,576.676l-1.794,1.793a.494.494,0,0,0,.7.7l1.794-1.794a.493.493,0,0,0-.7-.7Z" transform="translate(-2593.707 -573.664)" fill="#8c8589"/>
            </g>
          </g>
        </g>
        <g id="Grupo_34931" data-name="Grupo 34931" transform="translate(199.395 136.948)">
          <path id="Trazado_42747" data-name="Trazado 42747" d="M2638.986,678.585l-2.405,21.5s-7.9,2.309-12.6-.28l-1.678-22.182a16.013,16.013,0,0,1,8.684-1.51A29.313,29.313,0,0,1,2638.986,678.585Z" transform="translate(-2621.428 -665.255)" fill="#e4e5ef"/>
          <path id="Trazado_42748" data-name="Trazado 42748" d="M2634.747,674.915l-.4,16.708-2.147-.015.716-17.227Z" transform="translate(-2624.248 -664.801)" fill="#f2f0dd"/>
          <path id="Trazado_42749" data-name="Trazado 42749" d="M2624.257,693.922l.8,9.434a1.7,1.7,0,0,0,1.307,1.513,23.34,23.34,0,0,0,9.053-.061,1.7,1.7,0,0,0,1.368-1.476l1.148-10.054s-2.189,1.848-7.553,1.713S2624.257,693.922,2624.257,693.922Z" transform="translate(-2621.983 -670.184)" fill="#603813"/>
          <path id="Trazado_42750" data-name="Trazado 42750" d="M2630.947,694.855s6.842-.214,6.988-2.1-8.967-1.195-9.206-1.158-4.6.264-4.473,1.8S2630.947,694.855,2630.947,694.855Z" transform="translate(-2621.982 -669.66)" fill="#72421a"/>
          <path id="Trazado_42751" data-name="Trazado 42751" d="M2634.71,692.158s-6-.1-7.33.568,1.965,2.164,4.542,1.762c0,0-3.65-.383-3.7-1.174s6.521-1.056,7.034-.553-1.656,1.026-3.349.932c0,0,.659.607,3.121.033S2636.549,692.26,2634.71,692.158Z" transform="translate(-2622.786 -669.864)" fill="#603813"/>
          <path id="Trazado_42752" data-name="Trazado 42752" d="M2633.408,689.471l1.152.067-.065,2.729a3.284,3.284,0,0,1-2.089.13l.125-3Z" transform="translate(-2624.305 -669.077)" fill="#f2f0dd"/>
          <path id="Trazado_42753" data-name="Trazado 42753" d="M2626.6,701.225s0,4.963.918,5.328c0,0-1.3.3-1.64-.67a33.853,33.853,0,0,1-.542-4.841Z" transform="translate(-2622.292 -672.396)" fill="#e0d8d3"/>
          <path id="Trazado_42754" data-name="Trazado 42754" d="M2626.572,699.619l-1.264-.183.014.75,1.263.1Z" transform="translate(-2622.283 -671.939)" fill="#e0d8d3"/>
          <path id="Trazado_42755" data-name="Trazado 42755" d="M2627.554,675.144l11.024.614.687,3.109a34.266,34.266,0,0,1-18.188-.242l.8-3.082Z" transform="translate(-2621.078 -665.018)" fill="#cbcdd8"/>
          <path id="Trazado_42756" data-name="Trazado 42756" d="M2622.2,674.953c0,1.086,3.492,1.979,8.556,2s8.137-.714,8.14-1.8-3.062-2.116-8.127-2.134S2622.207,673.867,2622.2,674.953Z" transform="translate(-2621.398 -664.412)" fill="#b9bcc9"/>
          <path id="Trazado_42757" data-name="Trazado 42757" d="M2632.091,676.6c5.141-.1,6.422-1,6.464-1.219,0-.31-1.968-1.535-7.554-1.555q-.489,0-.958.008c-4.96.1-6.861,1.01-7.029,1.355.215.481,2.8,1.4,7.977,1.419Q2631.558,676.607,2632.091,676.6Z" transform="translate(-2621.629 -664.641)" fill="#c0c2cc"/>
          <ellipse id="Elipse_514" data-name="Elipse 514" cx="1.868" cy="0.527" rx="1.868" ry="0.527" transform="translate(7.687 8.017) rotate(-1.119)" fill="#b9bcc9"/>
          <path id="Trazado_42758" data-name="Trazado 42758" d="M2635.08,671.534l.068-5.8,8.748-1.479a5.22,5.22,0,0,1-.125-3.265l-10.349,2.133-.266,7.949S2633.435,671.857,2635.08,671.534Z" transform="translate(-2624.519 -660.984)" fill="#f2f0dd"/>
          <path id="Trazado_42759" data-name="Trazado 42759" d="M2646.91,662.778c.1.815.419,1.482.9,1.472s.859-.684.843-1.506-.425-1.77-.907-1.76S2646.809,661.962,2646.91,662.778Z" transform="translate(-2628.433 -660.984)" fill="#e5e2cc"/>
          <g id="Grupo_34930" data-name="Grupo 34930" transform="translate(7.307 8.47)">
            <path id="Trazado_42760" data-name="Trazado 42760" d="M2631.686,672.9c.006.291.847.511,1.878.491s1.863-.273,1.858-.564l.277,2.057c-1.842,1.284-4.4.086-4.4.086Z" transform="translate(-2631.296 -672.828)" fill="#cbcdd8"/>
          </g>
          <path id="Trazado_42761" data-name="Trazado 42761" d="M2638.3,684.27l-.372,3.828a42.934,42.934,0,0,1-14.038.274l-.3-3.814A39.673,39.673,0,0,0,2638.3,684.27Z" transform="translate(-2621.795 -667.618)" fill="#e00b71"/>
          <path id="Trazado_42762" data-name="Trazado 42762" d="M2637.718,696.837a29.616,29.616,0,0,1-13.2.258l.093,1.085s7.754,1.479,12.987-.254Z" transform="translate(-2622.057 -671.198)" fill="#e00b71"/>
        </g>
        <path id="Trazado_42763" data-name="Trazado 42763" d="M2506.668,701.72s-.282-12.568,12.2-11.386c11.058,1.047,9.024,11.972,9.024,11.972S2510.256,702,2506.668,701.72Z" transform="translate(-2389.087 -532.376)" fill="#dbdbdb"/>
        <path id="Trazado_42764" data-name="Trazado 42764" d="M2513.391,702.7l-6.723,2.564a82.3,82.3,0,0,0,11.539,1.067,74.243,74.243,0,0,0,9.689-.481l-4.092-3.15Z" transform="translate(-2389.087 -535.921)" fill="#dbdbdb"/>
        <path id="Trazado_42765" data-name="Trazado 42765" d="M2510.627,688.91a13.5,13.5,0,0,1,9.108-1.706,1.481,1.481,0,0,1,.443,1.038s-5.169-.706-8.7,1.4l-.511.245A.676.676,0,0,1,2510.627,688.91Z" transform="translate(-2390.185 -531.458)" fill="#dbdbdb"/>
        <path id="Trazado_42766" data-name="Trazado 42766" d="M2510.232,686.68a14.79,14.79,0,0,1,8.975-1.342.993.993,0,0,0-.244-.909s-5.058-1.13-8.59,1.025l-.469.286S2509.818,686.607,2510.232,686.68Z" transform="translate(-2390.007 -530.631)" fill="#dbdbdb"/>
        <path id="Trazado_42767" data-name="Trazado 42767" d="M2509.807,683.271s3.377-1.821,8.842-.808a1.249,1.249,0,0,0-.119-.808,11.96,11.96,0,0,0-8.537.476,1.279,1.279,0,0,0-.343.275C2509.564,682.536,2509.5,683.139,2509.807,683.271Z" transform="translate(-2389.917 -529.769)" fill="#dbdbdb"/>
        <path id="Trazado_42768" data-name="Trazado 42768" d="M2509.5,680.037a10.924,10.924,0,0,1,8.854-.47,2.215,2.215,0,0,0,.007-.954s-3.528-2.147-8.5.13l-.5.239A1.119,1.119,0,0,0,2509.5,680.037Z" transform="translate(-2389.833 -528.798)" fill="#dbdbdb"/>
        <g id="Grupo_34932" data-name="Grupo 34932" transform="translate(107.337 151.416)">
          <path id="Trazado_42769" data-name="Trazado 42769" d="M2496.831,684.2l-2.47-2.986-2.016,1.869,2.774,2.995Z" transform="translate(-2492.344 -681.217)" fill="#6d31fd"/>
          <path id="Trazado_42770" data-name="Trazado 42770" d="M2494.36,681.217l.681.823-.931.863,1.968,2.125-.96,1.053-2.774-2.995Z" transform="translate(-2492.344 -681.217)" fill="#422c9b" opacity="0.4"/>
        </g>
        <path id="Trazado_42771" data-name="Trazado 42771" d="M2482.559,684.5s8.363,9.63,10.139,11.944,5.421,6.247,16.7,5.784l9.2-.443s-10.944,1.715-15.45.732-7.294-1.793-10.586-5.5S2482.559,684.5,2482.559,684.5Z" transform="translate(-2382.219 -530.736)" fill="#dbdbdb"/>
        <path id="Trazado_42772" data-name="Trazado 42772" d="M2481.831,687.034l8.272,10.076S2484.55,691.883,2481.831,687.034Z" transform="translate(-2382.011 -531.458)" fill="#dbdbdb"/>
        <path id="Trazado_42773" data-name="Trazado 42773" d="M2623.471,501.364s-3.852-.661-4.382,3.862A8.065,8.065,0,0,1,2623.471,501.364Z" transform="translate(-2421.116 -478.551)" fill="#d3927a"/>
        <path id="Trazado_42774" data-name="Trazado 42774" d="M2480.866,714.986H2599.4c11.037-.34,11.627-5.045,10.412-6.835-1.127-1.66-2.259-1.6-4.078-.641a12.891,12.891,0,0,1-6.334,1.521H2480.866s-4.744-.175-6.943-1.521-4.627,3.051-1.5,5.249S2480.866,714.986,2480.866,714.986Z" transform="translate(-2378.906 -537.099)" fill="#2d2d2d"/>
        <g id="Grupo_34933" data-name="Grupo 34933" transform="translate(121.747 174.592)">
          <circle id="Elipse_515" data-name="Elipse 515" cx="7.537" cy="7.537" r="7.537" fill="#ea8018"/>
          <circle id="Elipse_516" data-name="Elipse 516" cx="7.537" cy="7.537" r="7.537" transform="translate(1.421 0.021)" fill="#f7931e"/>
          <circle id="Elipse_517" data-name="Elipse 517" cx="3.357" cy="3.357" r="3.357" transform="translate(5.601 4.202)" fill="#f9d53d"/>
          <path id="Trazado_42775" data-name="Trazado 42775" d="M2524.627,719.5a3.348,3.348,0,0,0-1.068.159,3.354,3.354,0,0,1-.094,6.362,3.356,3.356,0,1,0,1.163-6.521Z" transform="translate(-2515.619 -715.3)" fill="#f9e073"/>
        </g>
        <g id="Grupo_34934" data-name="Grupo 34934" transform="translate(175.841 174.592)">
          <circle id="Elipse_518" data-name="Elipse 518" cx="7.537" cy="7.537" r="7.537" fill="#ea8018"/>
          <circle id="Elipse_519" data-name="Elipse 519" cx="7.537" cy="7.537" r="7.537" transform="translate(1.421 0.021)" fill="#f7931e"/>
          <circle id="Elipse_520" data-name="Elipse 520" cx="3.357" cy="3.357" r="3.357" transform="translate(5.601 4.202)" fill="#f9d53d"/>
          <path id="Trazado_42776" data-name="Trazado 42776" d="M2600.272,719.5a3.348,3.348,0,0,0-1.068.159,3.354,3.354,0,0,1-.094,6.362,3.356,3.356,0,1,0,1.162-6.521Z" transform="translate(-2591.265 -715.3)" fill="#f9e073"/>
        </g>
        <path id="Trazado_42777" data-name="Trazado 42777" d="M2342.766,734.4a.523.523,0,0,1,0-1.046l230.828-.807h0a.523.523,0,0,1,0,1.046l-230.828.807Z" transform="translate(-2342.243 -544.424)" fill="#dbb100"/>
      </g>
    </g>
  </g>
</svg>
