<svg xmlns="http://www.w3.org/2000/svg" width="16" height="16" viewBox="0 0 16 16">
  <g id="Grupo_40158" data-name="Grupo 40158" transform="translate(-131 -379)">
    <path id="Trazado_42785" data-name="Trazado 42785" d="M6.778,12.436a5.271,5.271,0,0,1-2.894-.865l-2.018.641.651-1.944a5.16,5.16,0,0,1-1-3.064,4,4,0,0,1,.031-.5,5.267,5.267,0,0,1,10.486.1c.01.139.01.277.01.405a5.254,5.254,0,0,1-5.264,5.232ZM9.65,8.463c-.16-.075-.907-.448-1.046-.5s-.246-.075-.352.085a7.557,7.557,0,0,1-.481.587c-.1.107-.181.118-.331.043A4.019,4.019,0,0,1,6.2,7.919a4.534,4.534,0,0,1-.855-1.046c-.085-.161-.01-.235.065-.32a1.966,1.966,0,0,0,.235-.267A.276.276,0,0,0,5.7,6.221a1.555,1.555,0,0,0,.1-.181.261.261,0,0,0-.01-.267c-.032-.075-.342-.833-.47-1.132s-.257-.256-.342-.256-.192-.011-.3-.011a.525.525,0,0,0-.405.192A1.7,1.7,0,0,0,3.81,6.349a3.356,3.356,0,0,0,.544,1.057A6.2,6.2,0,0,0,6.97,9.7c1.57.609,1.57.405,1.847.384a1.525,1.525,0,0,0,1.036-.726,1.215,1.215,0,0,0,.086-.727c-.032-.053-.139-.1-.289-.171Zm3.385-1.409a6.257,6.257,0,0,0-12.5-.117A2.163,2.163,0,0,0,.521,7.2a6.211,6.211,0,0,0,.9,3.214L.286,13.749l3.47-1.1A6.279,6.279,0,0,0,13.045,7.2c0-.054-.01-.1-.01-.15Z" transform="translate(132.714 379.569)" fill="#191b1d" fill-rule="evenodd"/>
    <rect id="Rectángulo_5883" data-name="Rectángulo 5883" width="16" height="16" transform="translate(131 379)" fill="none"/>
  </g>
</svg>
