<svg id="Capa_1" data-name="Capa 1" xmlns="http://www.w3.org/2000/svg" viewBox="0 0 512 512"><defs><style>.cls-1{fill:#fccc05;}</style></defs><title>Mesa de trabajo 4</title><path class="cls-1" d="M380.46,130.59a89.78,89.78,0,0,1,0,126.8l-6.55,6.54s72.16,55.88,36.38,109.88l43.3-43.29c75.28-75.28,75.28-197.78,0-273.06s-197.78-75.28-273.06,0L174,64c-23,23-53.69,79.42-5,128.11l11.57,11.57,69.36-69.36,3.76-3.75a89.75,89.75,0,0,1,126.79,0"/><path class="cls-1" d="M130.59,380.46a89.77,89.77,0,0,1,0-126.79l6.55-6.55S65,191.24,100.76,137.24l-43.3,43.29c-75.28,75.28-75.28,197.78,0,273.06s197.77,75.28,273.06,0l6.54-6.55c23-23,53.69-79.42,5-128.11l-11.57-11.57-69.36,69.36-3.76,3.75a89.75,89.75,0,0,1-126.79,0"/><path class="cls-1" d="M288.29,181.05,181.05,288.29A29.49,29.49,0,0,0,222.76,330L330,222.76a29.49,29.49,0,0,0-41.71-41.71Z"/></svg>