<svg xmlns="http://www.w3.org/2000/svg" width="88" height="24.433" viewBox="0 0 88 24.433">
  <g id="Grupo_34500" data-name="Grupo 34500" transform="translate(-2204.875 -6654.353)">
    <g id="Grupo_34504" data-name="Grupo 34504" transform="translate(2204.875 6654.353)">
      <g id="Grupo_34503" data-name="Grupo 34503">
        <g id="Grupo_34502" data-name="Grupo 34502">
          <g id="Grupo_34500-2" data-name="Grupo 34500" transform="translate(6.819)">
            <path id="Trazado_41728" data-name="Trazado 41728" d="M2236.329,6660.573a4.309,4.309,0,0,1,0,6.086l-.314.314s3.463,2.682,1.746,5.273l2.078-2.078a9.267,9.267,0,1,0-13.106-13.105l-.314.314c-1.1,1.1-2.577,3.812-.24,6.148l.555.556,3.329-3.329.18-.181a4.309,4.309,0,0,1,6.085,0" transform="translate(-2224.936 -6654.353)" fill="#fccc05"/>
          </g>
          <g id="Grupo_34501" data-name="Grupo 34501" transform="translate(0 6.539)">
            <path id="Trazado_41729" data-name="Trazado 41729" d="M2211.095,6685.263a4.309,4.309,0,0,1,0-6.086l.314-.314s-3.463-2.681-1.746-5.273l-2.078,2.078a9.267,9.267,0,0,0,13.106,13.105l.314-.313c1.1-1.105,2.577-3.812.24-6.148l-.556-.556-3.329,3.328-.18.181a4.31,4.31,0,0,1-6.086,0" transform="translate(-2204.875 -6673.589)" fill="#fccc05"/>
          </g>
        </g>
        <path id="Trazado_41730" data-name="Trazado 41730" d="M2234.644,6678.974l-5.147,5.147a1.416,1.416,0,0,0,2,2l5.147-5.147a1.415,1.415,0,0,0-2-2Z" transform="translate(-2220.854 -6670.332)" fill="#fccc05"/>
      </g>
    </g>
    <g id="Grupo_34506" data-name="Grupo 34506" transform="translate(2233.866 6656.433)">
      <g id="Grupo_34505" data-name="Grupo 34505" transform="translate(0)">
        <path id="Trazado_41731" data-name="Trazado 41731" d="M2298.418,6685.449a2.873,2.873,0,0,1-2.952.31,2.588,2.588,0,0,1-1.544-1.769,2.892,2.892,0,0,1,0-1.7,2.583,2.583,0,0,1,1.544-1.77,2.876,2.876,0,0,1,2.981.328,2.178,2.178,0,0,0,.7.4,2.325,2.325,0,0,0,2.96-1.421,6.432,6.432,0,1,0,0,6.591,2.725,2.725,0,0,0-3.212-1.231A3.564,3.564,0,0,0,2298.418,6685.449Z" transform="translate(-2290.164 -6671.197)" fill="#fff"/>
        <path id="Trazado_41732" data-name="Trazado 41732" d="M2380.3,6681.979h0c-.005-.084-.011-.167-.02-.25l-.009.02a6.589,6.589,0,1,0-2.824,6.352l.032-.067a2.712,2.712,0,0,0,2.273,1.043h.565v-6.648c0-.15-.007-.3-.017-.448Zm-3.456.642a3.078,3.078,0,0,1-6.155,0v-.009a3.078,3.078,0,0,1,6.156,0Z" transform="translate(-2340.981 -6670.761)" fill="#fff"/>
        <path id="Trazado_41733" data-name="Trazado 41733" d="M2296.35,6695.608h0" transform="translate(-2294.247 -6683.665)" fill="#fff"/>
        <path id="Trazado_41734" data-name="Trazado 41734" d="M2414.487,6676.863h-.61a3.28,3.28,0,0,0-3.241,3.5v2.265h.007v3.448a3.661,3.661,0,0,0,.826,2.582,3.122,3.122,0,0,0,2.416.945h.61v-6.976h-.007Z" transform="translate(-2369.685 -6671.292)" fill="#fff"/>
        <path id="Trazado_41735" data-name="Trazado 41735" d="M2412.044,6660.472a2.228,2.228,0,1,0,2.228,2.228A2.228,2.228,0,0,0,2412.044,6660.472Z" transform="translate(-2369.144 -6660.472)" fill="#fff"/>
        <path id="Trazado_41736" data-name="Trazado 41736" d="M2335.112,6666.807a4.9,4.9,0,0,0-3.651,1.187v-5.834h-.6a2.941,2.941,0,0,0-2.565,1.3,4.077,4.077,0,0,0-.645,2.168l-.03,10.91a3.855,3.855,0,0,0,.647,2.1,2.958,2.958,0,0,0,2.563,1.258h.6v-.01h.036v-6.948l0,0c0-1.809.968-2.624,2.369-2.624a2.1,2.1,0,0,1,2.216,2.318l.007.151v3.629a4.5,4.5,0,0,0,.38,1.684,2.913,2.913,0,0,0,2.83,1.788h.6v-7.812C2339.876,6668.641,2337.685,6666.842,2335.112,6666.807Z" transform="translate(-2314.884 -6661.586)" fill="#fff"/>
        <path id="Trazado_41737" data-name="Trazado 41737" d="M2435.1,6675.828c-2.411-.036-3.461.79-4.149,1.732a2.549,2.549,0,0,0-.223-.321,2.932,2.932,0,0,0-2.479-1.164h-.606v5.463s-.007.481-.007.739v3.137a3.263,3.263,0,0,0,3.224,3.485h.6v0h.009v-6.623s0-.23,0-.585a2.2,2.2,0,0,1,2.36-2.349,2.257,2.257,0,0,1,2.253,2.428v3.644a4.525,4.525,0,0,0,.382,1.69,2.927,2.927,0,0,0,2.843,1.795h.606v-7.129S2440.273,6675.906,2435.1,6675.828Z" transform="translate(-2380.906 -6670.608)" fill="#fff"/>
      </g>
    </g>
  </g>
</svg>
